<mxfile host="app.diagrams.net" modified="2024-07-08T06:32:06.997Z" agent="Mozilla/5.0 (Windows NT 10.0; Win64; x64) AppleWebKit/537.36 (KHTML, like Gecko) Chrome/126.0.0.0 Safari/537.36 Edg/126.0.0.0" etag="JCpYu7cVfnY2caAL0GWe" version="24.6.4" type="device">
  <diagram name="Page-1" id="03018318-947c-dd8e-b7a3-06fadd420f32">
    <mxGraphModel dx="2472" dy="1988" grid="1" gridSize="10" guides="1" tooltips="1" connect="1" arrows="1" fold="1" page="1" pageScale="1" pageWidth="1100" pageHeight="850" background="#ffffff" math="0" shadow="0">
      <root>
        <mxCell id="0" />
        <mxCell id="1" parent="0" />
        <mxCell id="677b7b8949515195-1" value="" style="whiteSpace=wrap;html=1;rounded=0;shadow=0;labelBackgroundColor=none;strokeColor=#000000;strokeWidth=1;fillColor=none;fontFamily=Verdana;fontSize=12;fontColor=#000000;align=center;comic=1;" parent="1" vertex="1">
          <mxGeometry x="20" y="20" width="1060" height="810" as="geometry" />
        </mxCell>
        <mxCell id="677b7b8949515195-9" value="" style="line;strokeWidth=1;html=1;rounded=0;shadow=0;labelBackgroundColor=none;fillColor=none;fontFamily=Verdana;fontSize=14;fontColor=#000000;align=center;comic=1;" parent="1" vertex="1">
          <mxGeometry x="20" y="110" width="1060" height="10" as="geometry" />
        </mxCell>
        <mxCell id="677b7b8949515195-26" value="" style="whiteSpace=wrap;html=1;rounded=0;shadow=0;labelBackgroundColor=none;strokeWidth=1;fillColor=none;fontFamily=Verdana;fontSize=12;align=center;comic=1;" parent="1" vertex="1">
          <mxGeometry x="30" y="690" width="1040" height="130" as="geometry" />
        </mxCell>
        <mxCell id="y5IsJQyIRW_9o38pP9EZ-4" value="" style="verticalLabelPosition=bottom;shadow=0;dashed=0;align=center;html=1;verticalAlign=top;strokeWidth=1;shape=mxgraph.mockup.graphics.simpleIcon;strokeColor=#999999;rounded=0;labelBackgroundColor=none;fontFamily=Verdana;fontSize=14;fontColor=#000000;comic=1;" parent="1" vertex="1">
          <mxGeometry x="701" y="472" width="225" height="150" as="geometry" />
        </mxCell>
        <mxCell id="y5IsJQyIRW_9o38pP9EZ-10" value="" style="verticalLabelPosition=bottom;shadow=0;dashed=0;align=center;html=1;verticalAlign=top;strokeWidth=1;shape=mxgraph.mockup.graphics.simpleIcon;strokeColor=#999999;rounded=0;labelBackgroundColor=none;fontFamily=Verdana;fontSize=14;fontColor=#000000;comic=1;" parent="1" vertex="1">
          <mxGeometry x="437" y="472" width="225" height="150" as="geometry" />
        </mxCell>
        <mxCell id="y5IsJQyIRW_9o38pP9EZ-11" value="" style="verticalLabelPosition=bottom;shadow=0;dashed=0;align=center;html=1;verticalAlign=top;strokeWidth=1;shape=mxgraph.mockup.graphics.simpleIcon;strokeColor=#999999;rounded=0;labelBackgroundColor=none;fontFamily=Verdana;fontSize=14;fontColor=#000000;comic=1;" parent="1" vertex="1">
          <mxGeometry x="171" y="472" width="225" height="150" as="geometry" />
        </mxCell>
        <mxCell id="y5IsJQyIRW_9o38pP9EZ-12" value="" style="verticalLabelPosition=bottom;shadow=0;dashed=0;align=center;html=1;verticalAlign=top;strokeWidth=1;shape=mxgraph.mockup.graphics.simpleIcon;strokeColor=#999999;rounded=0;labelBackgroundColor=none;fontFamily=Verdana;fontSize=14;fontColor=#000000;comic=1;" parent="1" vertex="1">
          <mxGeometry x="701" y="233" width="225" height="150" as="geometry" />
        </mxCell>
        <mxCell id="y5IsJQyIRW_9o38pP9EZ-13" value="" style="verticalLabelPosition=bottom;shadow=0;dashed=0;align=center;html=1;verticalAlign=top;strokeWidth=1;shape=mxgraph.mockup.graphics.simpleIcon;strokeColor=#999999;rounded=0;labelBackgroundColor=none;fontFamily=Verdana;fontSize=14;fontColor=#000000;comic=1;" parent="1" vertex="1">
          <mxGeometry x="437" y="233" width="225" height="150" as="geometry" />
        </mxCell>
        <mxCell id="y5IsJQyIRW_9o38pP9EZ-14" value="" style="verticalLabelPosition=bottom;shadow=0;dashed=0;align=center;html=1;verticalAlign=top;strokeWidth=1;shape=mxgraph.mockup.graphics.simpleIcon;strokeColor=#999999;rounded=0;labelBackgroundColor=none;fontFamily=Verdana;fontSize=14;fontColor=#000000;comic=1;" parent="1" vertex="1">
          <mxGeometry x="171" y="233" width="225" height="150" as="geometry" />
        </mxCell>
        <mxCell id="y5IsJQyIRW_9o38pP9EZ-17" value="Follow us on Social Media" style="text;html=1;points=[];align=left;verticalAlign=top;spacingTop=-4;fontSize=14;fontFamily=Verdana" parent="1" vertex="1">
          <mxGeometry x="475" y="699.5" width="170" height="20" as="geometry" />
        </mxCell>
        <mxCell id="y5IsJQyIRW_9o38pP9EZ-18" value="" style="dashed=0;outlineConnect=0;html=1;align=center;labelPosition=center;verticalLabelPosition=bottom;verticalAlign=top;shape=mxgraph.webicons.instagram;gradientColor=#DFDEDE" parent="1" vertex="1">
          <mxGeometry x="543.8" y="749.5" width="32.4" height="30" as="geometry" />
        </mxCell>
        <mxCell id="y5IsJQyIRW_9o38pP9EZ-19" value="" style="dashed=0;outlineConnect=0;html=1;align=center;labelPosition=center;verticalLabelPosition=bottom;verticalAlign=top;shape=mxgraph.webicons.facebook;fillColor=#6294E4;gradientColor=#1A2665" parent="1" vertex="1">
          <mxGeometry x="610" y="749.5" width="29.4" height="30" as="geometry" />
        </mxCell>
        <mxCell id="y5IsJQyIRW_9o38pP9EZ-25" value="&lt;span style=&quot;color: rgba(0, 0, 0, 0); font-family: monospace; font-size: 0px; text-align: start; text-wrap: nowrap;&quot;&gt;%3CmxGraphModel%3E%3Croot%3E%3CmxCell%20id%3D%220%22%2F%3E%3CmxCell%20id%3D%221%22%20parent%3D%220%22%2F%3E%3CmxCell%20id%3D%222%22%20value%3D%22%22%20style%3D%22rounded%3D0%3BwhiteSpace%3Dwrap%3Bhtml%3D1%3B%22%20vertex%3D%221%22%20parent%3D%221%22%3E%3CmxGeometry%20x%3D%221250%22%20y%3D%22245%22%20width%3D%22610%22%20height%3D%22160%22%20as%3D%22geometry%22%2F%3E%3C%2FmxCell%3E%3CmxCell%20id%3D%223%22%20value%3D%22%22%20style%3D%22verticalLabelPosition%3Dbottom%3Bshadow%3D0%3Bdashed%3D0%3Balign%3Dcenter%3Bhtml%3D1%3BverticalAlign%3Dtop%3BstrokeWidth%3D1%3Bshape%3Dmxgraph.mockup.graphics.simpleIcon%3BstrokeColor%3D%23999999%3Brounded%3D0%3BlabelBackgroundColor%3Dnone%3BfontFamily%3DVerdana%3BfontSize%3D14%3BfontColor%3D%23000000%3Bcomic%3D1%3B%22%20vertex%3D%221%22%20parent%3D%221%22%3E%3CmxGeometry%20x%3D%221280%22%20y%3D%22277%22%20width%3D%22140%22%20height%3D%2296%22%20as%3D%22geometry%22%2F%3E%3C%2FmxCell%3E%3C%2Froot%3E%3C%2FmxGraphModel%3E&lt;/span&gt;" style="whiteSpace=wrap;html=1;rounded=0;shadow=0;labelBackgroundColor=none;strokeColor=#000000;strokeWidth=1;fillColor=none;fontFamily=Verdana;fontSize=12;fontColor=#000000;align=center;comic=1;" parent="1" vertex="1">
          <mxGeometry x="1220" y="20" width="1060" height="810" as="geometry" />
        </mxCell>
        <mxCell id="y5IsJQyIRW_9o38pP9EZ-35" value="" style="whiteSpace=wrap;html=1;rounded=0;shadow=0;labelBackgroundColor=none;strokeWidth=1;fillColor=none;fontFamily=Verdana;fontSize=12;align=center;comic=1;" parent="1" vertex="1">
          <mxGeometry x="2004" y="299" width="230" height="210" as="geometry" />
        </mxCell>
        <mxCell id="y5IsJQyIRW_9o38pP9EZ-38" value="Brand:&lt;div&gt;&lt;br&gt;&lt;/div&gt;&lt;div&gt;Top Speed:&lt;/div&gt;&lt;div&gt;&lt;br&gt;&lt;/div&gt;&lt;div&gt;Rent per Hour:&lt;/div&gt;&lt;div&gt;&lt;br&gt;&lt;/div&gt;&lt;div&gt;Seat Count:&lt;/div&gt;&lt;div&gt;&lt;br&gt;&lt;/div&gt;&lt;div&gt;Description&lt;/div&gt;" style="text;html=1;points=[];align=left;verticalAlign=top;spacingTop=-4;fontSize=14;fontFamily=Verdana" parent="1" vertex="1">
          <mxGeometry x="2025" y="322" width="170" height="20" as="geometry" />
        </mxCell>
        <mxCell id="y5IsJQyIRW_9o38pP9EZ-61" value="&lt;font style=&quot;font-size: 24px;&quot;&gt;Rent Page&lt;/font&gt;" style="text;html=1;align=center;verticalAlign=middle;resizable=0;points=[];autosize=1;strokeColor=none;fillColor=none;" parent="1" vertex="1">
          <mxGeometry x="20" y="-20" width="140" height="40" as="geometry" />
        </mxCell>
        <mxCell id="y5IsJQyIRW_9o38pP9EZ-62" value="&lt;font style=&quot;font-size: 24px;&quot;&gt;Detailed Car Page&lt;/font&gt;" style="text;html=1;align=center;verticalAlign=middle;resizable=0;points=[];autosize=1;strokeColor=none;fillColor=none;" parent="1" vertex="1">
          <mxGeometry x="1207" y="-20" width="220" height="40" as="geometry" />
        </mxCell>
        <mxCell id="y5IsJQyIRW_9o38pP9EZ-63" value="Rent" style="labelPosition=center;verticalLabelPosition=middle;align=center;html=1;shape=mxgraph.basic.button;dx=10;whiteSpace=wrap;" parent="1" vertex="1">
          <mxGeometry x="2005" y="530" width="235" height="50" as="geometry" />
        </mxCell>
        <mxCell id="DozhcayBd8Z3OF6uSsUL-1" value="" style="verticalLabelPosition=bottom;verticalAlign=top;html=1;shape=mxgraph.basic.x" vertex="1" parent="1">
          <mxGeometry x="490" y="754.75" width="19" height="19.5" as="geometry" />
        </mxCell>
        <mxCell id="DozhcayBd8Z3OF6uSsUL-2" value="Car 1" style="text;html=1;align=center;verticalAlign=middle;whiteSpace=wrap;rounded=0;" vertex="1" parent="1">
          <mxGeometry x="254" y="385" width="60" height="30" as="geometry" />
        </mxCell>
        <mxCell id="DozhcayBd8Z3OF6uSsUL-3" value="Car 2" style="text;html=1;align=center;verticalAlign=middle;whiteSpace=wrap;rounded=0;" vertex="1" parent="1">
          <mxGeometry x="520" y="390" width="60" height="25" as="geometry" />
        </mxCell>
        <mxCell id="DozhcayBd8Z3OF6uSsUL-5" value="Car 3" style="text;html=1;align=center;verticalAlign=middle;whiteSpace=wrap;rounded=0;" vertex="1" parent="1">
          <mxGeometry x="783.5" y="387.5" width="60" height="30" as="geometry" />
        </mxCell>
        <mxCell id="DozhcayBd8Z3OF6uSsUL-6" value="Car 4" style="text;html=1;align=center;verticalAlign=middle;whiteSpace=wrap;rounded=0;" vertex="1" parent="1">
          <mxGeometry x="253.5" y="622" width="60" height="30" as="geometry" />
        </mxCell>
        <mxCell id="DozhcayBd8Z3OF6uSsUL-7" value="Car 5" style="text;html=1;align=center;verticalAlign=middle;whiteSpace=wrap;rounded=0;" vertex="1" parent="1">
          <mxGeometry x="520" y="622" width="60" height="30" as="geometry" />
        </mxCell>
        <mxCell id="DozhcayBd8Z3OF6uSsUL-8" value="Car 6" style="text;html=1;align=center;verticalAlign=middle;whiteSpace=wrap;rounded=0;" vertex="1" parent="1">
          <mxGeometry x="783.5" y="622" width="60" height="30" as="geometry" />
        </mxCell>
        <mxCell id="DozhcayBd8Z3OF6uSsUL-9" value="&lt;font style=&quot;font-size: 24px;&quot;&gt;Home&lt;/font&gt;" style="text;html=1;align=center;verticalAlign=middle;whiteSpace=wrap;rounded=0;" vertex="1" parent="1">
          <mxGeometry x="328" y="50" width="60" height="30" as="geometry" />
        </mxCell>
        <mxCell id="DozhcayBd8Z3OF6uSsUL-10" value="&lt;font style=&quot;font-size: 24px;&quot;&gt;About&lt;/font&gt;" style="text;html=1;align=center;verticalAlign=middle;whiteSpace=wrap;rounded=0;" vertex="1" parent="1">
          <mxGeometry x="428" y="50" width="60" height="30" as="geometry" />
        </mxCell>
        <mxCell id="DozhcayBd8Z3OF6uSsUL-11" value="&lt;span style=&quot;font-size: 24px;&quot;&gt;Rent&lt;/span&gt;" style="text;html=1;align=center;verticalAlign=middle;whiteSpace=wrap;rounded=0;" vertex="1" parent="1">
          <mxGeometry x="517.4000000000001" y="50" width="60" height="30" as="geometry" />
        </mxCell>
        <mxCell id="DozhcayBd8Z3OF6uSsUL-12" value="&lt;font style=&quot;font-size: 24px;&quot;&gt;Login&lt;/font&gt;" style="text;html=1;align=center;verticalAlign=middle;whiteSpace=wrap;rounded=0;" vertex="1" parent="1">
          <mxGeometry x="608" y="50" width="60" height="30" as="geometry" />
        </mxCell>
        <mxCell id="DozhcayBd8Z3OF6uSsUL-13" value="&lt;font style=&quot;font-size: 24px;&quot;&gt;Register&lt;/font&gt;" style="text;html=1;align=center;verticalAlign=middle;whiteSpace=wrap;rounded=0;" vertex="1" parent="1">
          <mxGeometry x="698" y="50" width="60" height="30" as="geometry" />
        </mxCell>
        <mxCell id="DozhcayBd8Z3OF6uSsUL-15" value="" style="line;strokeWidth=1;html=1;rounded=0;shadow=0;labelBackgroundColor=none;fillColor=none;fontFamily=Verdana;fontSize=14;fontColor=#000000;align=center;comic=1;" vertex="1" parent="1">
          <mxGeometry x="1220" y="110" width="1060" height="10" as="geometry" />
        </mxCell>
        <mxCell id="DozhcayBd8Z3OF6uSsUL-16" value="&lt;font style=&quot;font-size: 24px;&quot;&gt;Home&lt;/font&gt;" style="text;html=1;align=center;verticalAlign=middle;whiteSpace=wrap;rounded=0;" vertex="1" parent="1">
          <mxGeometry x="1541" y="50" width="60" height="30" as="geometry" />
        </mxCell>
        <mxCell id="DozhcayBd8Z3OF6uSsUL-17" value="&lt;font style=&quot;font-size: 24px;&quot;&gt;About&lt;/font&gt;" style="text;html=1;align=center;verticalAlign=middle;whiteSpace=wrap;rounded=0;" vertex="1" parent="1">
          <mxGeometry x="1641" y="50" width="60" height="30" as="geometry" />
        </mxCell>
        <mxCell id="DozhcayBd8Z3OF6uSsUL-18" value="&lt;span style=&quot;font-size: 24px;&quot;&gt;Rent&lt;/span&gt;" style="text;html=1;align=center;verticalAlign=middle;whiteSpace=wrap;rounded=0;" vertex="1" parent="1">
          <mxGeometry x="1730.4" y="50" width="60" height="30" as="geometry" />
        </mxCell>
        <mxCell id="DozhcayBd8Z3OF6uSsUL-19" value="&lt;font style=&quot;font-size: 24px;&quot;&gt;Login&lt;/font&gt;" style="text;html=1;align=center;verticalAlign=middle;whiteSpace=wrap;rounded=0;" vertex="1" parent="1">
          <mxGeometry x="1821" y="50" width="60" height="30" as="geometry" />
        </mxCell>
        <mxCell id="DozhcayBd8Z3OF6uSsUL-20" value="&lt;font style=&quot;font-size: 24px;&quot;&gt;Register&lt;/font&gt;" style="text;html=1;align=center;verticalAlign=middle;whiteSpace=wrap;rounded=0;" vertex="1" parent="1">
          <mxGeometry x="1911" y="50" width="60" height="30" as="geometry" />
        </mxCell>
        <mxCell id="DozhcayBd8Z3OF6uSsUL-29" value="" style="whiteSpace=wrap;html=1;rounded=0;shadow=0;labelBackgroundColor=none;strokeWidth=1;fillColor=none;fontFamily=Verdana;fontSize=12;align=center;comic=1;" vertex="1" parent="1">
          <mxGeometry x="1230" y="690" width="1040" height="130" as="geometry" />
        </mxCell>
        <mxCell id="DozhcayBd8Z3OF6uSsUL-30" value="" style="dashed=0;outlineConnect=0;html=1;align=center;labelPosition=center;verticalLabelPosition=bottom;verticalAlign=top;shape=mxgraph.webicons.instagram;gradientColor=#DFDEDE" vertex="1" parent="1">
          <mxGeometry x="1743.8" y="749.5" width="32.4" height="30" as="geometry" />
        </mxCell>
        <mxCell id="DozhcayBd8Z3OF6uSsUL-31" value="" style="dashed=0;outlineConnect=0;html=1;align=center;labelPosition=center;verticalLabelPosition=bottom;verticalAlign=top;shape=mxgraph.webicons.facebook;fillColor=#6294E4;gradientColor=#1A2665" vertex="1" parent="1">
          <mxGeometry x="1810" y="749.5" width="29.4" height="30" as="geometry" />
        </mxCell>
        <mxCell id="DozhcayBd8Z3OF6uSsUL-32" value="" style="verticalLabelPosition=bottom;verticalAlign=top;html=1;shape=mxgraph.basic.x" vertex="1" parent="1">
          <mxGeometry x="1690" y="754.75" width="19" height="19.5" as="geometry" />
        </mxCell>
        <mxCell id="DozhcayBd8Z3OF6uSsUL-33" value="" style="verticalLabelPosition=bottom;shadow=0;dashed=0;align=center;html=1;verticalAlign=top;strokeWidth=1;shape=mxgraph.mockup.graphics.simpleIcon;strokeColor=#999999;rounded=0;labelBackgroundColor=none;fontFamily=Verdana;fontSize=14;fontColor=#000000;comic=1;" vertex="1" parent="1">
          <mxGeometry x="1290" y="295" width="510" height="215" as="geometry" />
        </mxCell>
        <mxCell id="DozhcayBd8Z3OF6uSsUL-34" value="Follow us on Social Media" style="text;html=1;points=[];align=left;verticalAlign=top;spacingTop=-4;fontSize=14;fontFamily=Verdana" vertex="1" parent="1">
          <mxGeometry x="1675" y="699.5" width="170" height="20" as="geometry" />
        </mxCell>
      </root>
    </mxGraphModel>
  </diagram>
</mxfile>
